<svg width="25" height="25" viewBox="0 0 25 25" fill="none" xmlns="http://www.w3.org/2000/svg">
<g id="article">
<mask id="mask0_3915_28273" style="mask-type:alpha" maskUnits="userSpaceOnUse" x="0" y="0" width="25" height="25">
<rect id="Bounding box" x="0.0654297" y="0.986816" width="24" height="24" fill="#D9D9D9"/>
</mask>
<g mask="url(#mask0_3915_28273)">
<path id="article_2" d="M7.06543 17.9868H14.0654V15.9868H7.06543V17.9868ZM7.06543 13.9868H17.0654V11.9868H7.06543V13.9868ZM7.06543 9.98682H17.0654V7.98682H7.06543V9.98682ZM5.06543 21.9868C4.51543 21.9868 4.0446 21.791 3.65293 21.3993C3.26126 21.0077 3.06543 20.5368 3.06543 19.9868V5.98682C3.06543 5.43682 3.26126 4.96598 3.65293 4.57432C4.0446 4.18265 4.51543 3.98682 5.06543 3.98682H19.0654C19.6154 3.98682 20.0863 4.18265 20.4779 4.57432C20.8696 4.96598 21.0654 5.43682 21.0654 5.98682V19.9868C21.0654 20.5368 20.8696 21.0077 20.4779 21.3993C20.0863 21.791 19.6154 21.9868 19.0654 21.9868H5.06543ZM5.06543 19.9868H19.0654V5.98682H5.06543V19.9868Z" fill="#A07B4F"/>
</g>
</g>
</svg>
