<svg width="50" height="48" viewBox="0 0 50 48" fill="none" xmlns="http://www.w3.org/2000/svg">
<g id="ballot_7653156 1" clip-path="url(#clip0_3915_27508)">
<path id="Vector" d="M35.417 47.0132H14.5837C8.83991 47.0132 4.16699 42.6206 4.16699 37.2215V9.80485C4.16699 4.40573 8.83991 0.0131836 14.5837 0.0131836H35.417C41.1607 0.0131836 45.8337 4.40573 45.8337 9.80485V37.2215C45.8337 42.6206 41.1607 47.0132 35.417 47.0132ZM14.5837 3.92985C11.1378 3.92985 8.33366 6.56577 8.33366 9.80485V37.2215C8.33366 40.4606 11.1378 43.0965 14.5837 43.0965H35.417C38.8628 43.0965 41.667 40.4606 41.667 37.2215V9.80485C41.667 6.56577 38.8628 3.92985 35.417 3.92985H14.5837ZM37.5003 11.7632C37.5003 10.6822 36.567 9.80485 35.417 9.80485H27.0837C25.9337 9.80485 25.0003 10.6822 25.0003 11.7632C25.0003 12.8442 25.9337 13.7215 27.0837 13.7215H35.417C36.567 13.7215 37.5003 12.8442 37.5003 11.7632ZM37.5003 23.5132C37.5003 22.4322 36.567 21.5549 35.417 21.5549H27.0837C25.9337 21.5549 25.0003 22.4322 25.0003 23.5132C25.0003 24.5942 25.9337 25.4715 27.0837 25.4715H35.417C36.567 25.4715 37.5003 24.5942 37.5003 23.5132ZM37.5003 35.2632C37.5003 34.1822 36.567 33.3049 35.417 33.3049H27.0837C25.9337 33.3049 25.0003 34.1822 25.0003 35.2632C25.0003 36.3442 25.9337 37.2215 27.0837 37.2215H35.417C36.567 37.2215 37.5003 36.3442 37.5003 35.2632ZM20.8337 13.7215V9.80485C20.8337 8.72385 19.9003 7.84652 18.7503 7.84652H14.5837C13.4337 7.84652 12.5003 8.72385 12.5003 9.80485V13.7215C12.5003 14.8025 13.4337 15.6799 14.5837 15.6799H18.7503C19.9003 15.6799 20.8337 14.8025 20.8337 13.7215ZM20.8337 25.4715V21.5549C20.8337 20.4739 19.9003 19.5965 18.7503 19.5965H14.5837C13.4337 19.5965 12.5003 20.4739 12.5003 21.5549V25.4715C12.5003 26.5525 13.4337 27.4299 14.5837 27.4299H18.7503C19.9003 27.4299 20.8337 26.5525 20.8337 25.4715ZM20.8337 37.2215V33.3049C20.8337 32.2239 19.9003 31.3465 18.7503 31.3465H14.5837C13.4337 31.3465 12.5003 32.2239 12.5003 33.3049V37.2215C12.5003 38.3025 13.4337 39.1799 14.5837 39.1799H18.7503C19.9003 39.1799 20.8337 38.3025 20.8337 37.2215Z" fill="white"/>
</g>
<defs>
<clipPath id="clip0_3915_27508">
<rect width="50" height="47" fill="white" transform="translate(0 0.0131836)"/>
</clipPath>
</defs>
</svg>
