<svg width="44" height="63" viewBox="0 0 44 63" fill="none" xmlns="http://www.w3.org/2000/svg">
<path id="Vector" d="M10.4167 30.2007C10.4167 29.1564 10.7459 28.1549 11.332 27.4165C11.918 26.678 12.7129 26.2632 13.5417 26.2632H19.7917C20.6205 26.2632 21.4153 26.678 22.0014 27.4165C22.5874 28.1549 22.9167 29.1564 22.9167 30.2007C22.9167 31.245 22.5874 32.2465 22.0014 32.9849C21.4153 33.7233 20.6205 34.1382 19.7917 34.1382H13.5417C12.7129 34.1382 11.918 33.7233 11.332 32.9849C10.7459 32.2465 10.4167 31.245 10.4167 30.2007ZM13.5417 21.0132H28.125C28.9538 21.0132 29.7487 20.5983 30.3347 19.8599C30.9208 19.1215 31.25 18.12 31.25 17.0757C31.25 16.0314 30.9208 15.0299 30.3347 14.2915C29.7487 13.553 28.9538 13.1382 28.125 13.1382H13.5417C12.7129 13.1382 11.918 13.553 11.332 14.2915C10.7459 15.0299 10.4167 16.0314 10.4167 17.0757C10.4167 18.12 10.7459 19.1215 11.332 19.8599C11.918 20.5983 12.7129 21.0132 13.5417 21.0132ZM39.5833 52.4449V60.1677C39.5833 60.7294 39.451 61.2784 39.2033 61.7454C38.9556 62.2124 38.6036 62.5764 38.1917 62.7913C37.7799 63.0062 37.3267 63.0625 36.8895 62.9529C36.4523 62.8434 36.0507 62.5729 35.7354 62.1758L33.3333 59.1492L30.9312 62.1758C30.616 62.5729 30.2144 62.8434 29.7772 62.9529C29.3399 63.0625 28.8868 63.0062 28.4749 62.7913C28.0631 62.5764 27.711 62.2124 27.4633 61.7454C27.2157 61.2784 27.0834 60.7294 27.0833 60.1677V52.4449C25.1981 50.6572 23.8517 48.1145 23.2655 45.2348C22.6792 42.355 22.8881 39.3097 23.8577 36.5993C24.8273 33.889 26.4999 31.675 28.6006 30.3213C30.7013 28.9676 33.1051 28.5548 35.4167 29.1507V14.4507C35.4167 12.7102 34.8679 11.041 33.8912 9.8103C32.9144 8.57959 31.5897 7.88818 30.2083 7.88818L11.4729 7.98793C10.7877 7.98552 10.1089 8.15348 9.47529 8.48219C8.84171 8.81091 8.26582 9.29391 7.78064 9.90354C7.29545 10.5132 6.91051 11.2374 6.64785 12.0348C6.3852 12.8322 6.25 13.6871 6.25 14.5504V45.9507C6.25 47.6912 6.79873 49.3604 7.77549 50.5911C8.75224 51.8218 10.077 52.5132 11.4583 52.5132H19.7917C20.6205 52.5132 21.4153 52.928 22.0014 53.6665C22.5874 54.4049 22.9167 55.4064 22.9167 56.4507C22.9167 57.495 22.5874 58.4965 22.0014 59.2349C21.4153 59.9733 20.6205 60.3882 19.7917 60.3882H11.4583C8.42058 60.3833 5.50835 58.8607 3.36033 56.1542C1.21231 53.4477 0.00385887 49.7783 0 45.9507V14.5504C0.00385887 10.7229 1.21231 7.05345 3.36033 4.34695C5.50835 1.64045 8.42058 0.117796 11.4583 0.112934L30.1937 0.0131836C33.2337 0.0145691 36.149 1.53552 38.3 4.24225C40.4509 6.94898 41.6617 10.6204 41.6667 14.4507V34.2196C42.4871 35.5849 43.0845 37.1419 43.4241 38.8002C43.7636 40.4585 43.8387 42.1852 43.645 43.8803C43.4512 45.5754 42.9924 47.2053 42.2952 48.6754C41.598 50.1456 40.6763 51.4268 39.5833 52.4449ZM29.1667 42.0132C29.1667 43.0515 29.411 44.0666 29.8689 44.9299C30.3267 45.7933 30.9775 46.4662 31.7388 46.8636C32.5002 47.2609 33.338 47.3649 34.1462 47.1623C34.9545 46.9597 35.6969 46.4597 36.2796 45.7255C36.8623 44.9913 37.2592 44.0558 37.4199 43.0374C37.5807 42.019 37.4982 40.9634 37.1828 40.0041C36.8675 39.0448 36.3334 38.2248 35.6482 37.648C34.963 37.0711 34.1574 36.7632 33.3333 36.7632C32.2283 36.7632 31.1685 37.3163 30.3871 38.3009C29.6057 39.2854 29.1667 40.6208 29.1667 42.0132Z" fill="black"/>
</svg>
