<svg width="50" height="62" viewBox="0 0 50 62" fill="none" xmlns="http://www.w3.org/2000/svg">
<path id="contract_edit" d="M15 22.1175V16.0647H37.5V22.1175H15ZM15 31.1967V25.1439H37.5V31.1967H15ZM22.5 61.4608H7.5C5.41667 61.4608 3.64583 60.5781 2.1875 58.8127C0.729166 57.0473 0 54.9035 0 52.3815V43.3023H7.5V0.932617H45V28.2459C44.1667 28.1451 43.3229 28.1829 42.4688 28.3594C41.6146 28.536 40.7917 28.8512 40 29.3052V6.98543H12.5V43.3023H27.5L22.5 49.3551H5V52.3815C5 53.239 5.23958 53.9578 5.71875 54.5379C6.19792 55.1179 6.79167 55.408 7.5 55.408H22.5V61.4608ZM27.5 61.4608V52.1546L41.3125 35.5093C41.6875 35.0554 42.1042 34.7275 42.5625 34.5257C43.0208 34.324 43.4792 34.2231 43.9375 34.2231C44.4375 34.2231 44.9167 34.3366 45.375 34.5636C45.8333 34.7906 46.25 35.131 46.625 35.585L48.9375 38.3844C49.2708 38.8384 49.5312 39.3428 49.7188 39.8976C49.9062 40.4525 50 41.0073 50 41.5621C50 42.117 49.9167 42.6844 49.75 43.2645C49.5833 43.8446 49.3125 44.3616 48.9375 44.8155L35.1875 61.4608H27.5ZM31.25 56.9212H33.625L41.1875 47.6906L40.0625 46.2531L38.875 44.8912L31.25 54.0461V56.9212ZM40.0625 46.2531L38.875 44.8912L41.1875 47.6906L40.0625 46.2531Z" fill="black"/>
</svg>
