<svg width="150" height="25" viewBox="0 0 150 25" fill="none" xmlns="http://www.w3.org/2000/svg">
<path d="M47.9659 7.01705V5.45455H58.875V7.01705H54.3011V20H52.5398V7.01705H47.9659ZM64.358 20.2273C63.3068 20.2273 62.4001 19.9953 61.6378 19.5312C60.8802 19.0625 60.2955 18.4091 59.8835 17.571C59.4763 16.7282 59.2727 15.7481 59.2727 14.6307C59.2727 13.5133 59.4763 12.5284 59.8835 11.6761C60.2955 10.8191 60.8684 10.1515 61.6023 9.6733C62.3409 9.19034 63.2027 8.94886 64.1875 8.94886C64.7557 8.94886 65.3168 9.04356 65.8707 9.23295C66.4247 9.42235 66.929 9.73011 67.3835 10.1562C67.8381 10.5777 68.2003 11.1364 68.4702 11.8324C68.7401 12.5284 68.875 13.3854 68.875 14.4034V15.1136H60.4659V13.6648H67.1705C67.1705 13.0492 67.0473 12.5 66.8011 12.017C66.5597 11.5341 66.214 11.1529 65.7642 10.8736C65.3191 10.5942 64.7936 10.4545 64.1875 10.4545C63.5199 10.4545 62.9422 10.6203 62.4545 10.9517C61.9716 11.2784 61.5999 11.7045 61.3395 12.2301C61.0791 12.7557 60.9489 13.3191 60.9489 13.9205V14.8864C60.9489 15.7102 61.0909 16.4086 61.375 16.9815C61.6638 17.5497 62.0639 17.983 62.5753 18.2812C63.0866 18.5748 63.6809 18.7216 64.358 18.7216C64.7983 18.7216 65.196 18.66 65.5511 18.5369C65.911 18.4091 66.2211 18.2197 66.4815 17.9688C66.742 17.7131 66.9432 17.3958 67.0852 17.017L68.7045 17.4716C68.5341 18.0208 68.2476 18.5038 67.8452 18.9205C67.4427 19.3324 66.9455 19.6544 66.3537 19.8864C65.7618 20.1136 65.0966 20.2273 64.358 20.2273ZM73.1009 13.4375V20H71.4247V9.09091H73.044V10.7955H73.1861C73.4418 10.2415 73.83 9.7964 74.3509 9.46023C74.8717 9.11932 75.544 8.94886 76.3679 8.94886C77.1065 8.94886 77.7528 9.10038 78.3068 9.40341C78.8608 9.7017 79.2917 10.1562 79.5994 10.767C79.9072 11.3731 80.0611 12.1402 80.0611 13.0682V20H78.3849V13.1818C78.3849 12.3248 78.1624 11.6572 77.7173 11.179C77.2723 10.696 76.6615 10.4545 75.8849 10.4545C75.3499 10.4545 74.8717 10.5705 74.4503 10.8026C74.0336 11.0346 73.7045 11.3731 73.4631 11.8182C73.2216 12.2633 73.1009 12.803 73.1009 13.4375ZM87.2433 20.2273C86.3342 20.2273 85.5316 19.9976 84.8356 19.5384C84.1396 19.0743 83.5951 18.4209 83.2021 17.5781C82.8091 16.7306 82.6126 15.7292 82.6126 14.5739C82.6126 13.428 82.8091 12.4337 83.2021 11.5909C83.5951 10.7481 84.1419 10.0971 84.8427 9.63778C85.5434 9.1785 86.3531 8.94886 87.2717 8.94886C87.9819 8.94886 88.543 9.06723 88.9549 9.30398C89.3716 9.53598 89.6888 9.80114 89.9066 10.0994C90.1291 10.393 90.302 10.6345 90.4251 10.8239H90.5671V5.45455H92.2433V20H90.6239V18.3239H90.4251C90.302 18.5227 90.1268 18.7737 89.8995 19.0767C89.6722 19.375 89.3479 19.6425 88.9265 19.8793C88.5051 20.1113 87.944 20.2273 87.2433 20.2273ZM87.4705 18.7216C88.1429 18.7216 88.7111 18.5464 89.1751 18.196C89.6391 17.8409 89.9918 17.3509 90.2333 16.7259C90.4748 16.0961 90.5955 15.3693 90.5955 14.5455C90.5955 13.7311 90.4772 13.0185 90.2404 12.4077C90.0037 11.7921 89.6533 11.3139 89.1893 10.973C88.7253 10.6274 88.1523 10.4545 87.4705 10.4545C86.7603 10.4545 86.1684 10.6368 85.695 11.0014C85.2262 11.3613 84.8735 11.8513 84.6367 12.4716C84.4047 13.0871 84.2887 13.7784 84.2887 14.5455C84.2887 15.322 84.4071 16.0275 84.6438 16.6619C84.8853 17.2917 85.2404 17.7936 85.7092 18.1676C86.1826 18.5369 86.7698 18.7216 87.4705 18.7216ZM100.12 20.2273C99.0685 20.2273 98.1618 19.9953 97.3995 19.5312C96.6419 19.0625 96.0572 18.4091 95.6452 17.571C95.238 16.7282 95.0344 15.7481 95.0344 14.6307C95.0344 13.5133 95.238 12.5284 95.6452 11.6761C96.0572 10.8191 96.6301 10.1515 97.364 9.6733C98.1026 9.19034 98.9644 8.94886 99.9492 8.94886C100.517 8.94886 101.078 9.04356 101.632 9.23295C102.186 9.42235 102.691 9.73011 103.145 10.1562C103.6 10.5777 103.962 11.1364 104.232 11.8324C104.502 12.5284 104.637 13.3854 104.637 14.4034V15.1136H96.2276V13.6648H102.932C102.932 13.0492 102.809 12.5 102.563 12.017C102.321 11.5341 101.976 11.1529 101.526 10.8736C101.081 10.5942 100.555 10.4545 99.9492 10.4545C99.2816 10.4545 98.704 10.6203 98.2163 10.9517C97.7333 11.2784 97.3616 11.7045 97.1012 12.2301C96.8408 12.7557 96.7106 13.3191 96.7106 13.9205V14.8864C96.7106 15.7102 96.8526 16.4086 97.1367 16.9815C97.4255 17.5497 97.8256 17.983 98.337 18.2812C98.8484 18.5748 99.4426 18.7216 100.12 18.7216C100.56 18.7216 100.958 18.66 101.313 18.5369C101.673 18.4091 101.983 18.2197 102.243 17.9688C102.504 17.7131 102.705 17.3958 102.847 17.017L104.466 17.4716C104.296 18.0208 104.009 18.5038 103.607 18.9205C103.204 19.3324 102.707 19.6544 102.115 19.8864C101.524 20.1136 100.858 20.2273 100.12 20.2273ZM107.186 20V9.09091H108.806V10.7386H108.919C109.118 10.1989 109.478 9.76089 109.999 9.42472C110.52 9.08854 111.107 8.92045 111.76 8.92045C111.883 8.92045 112.037 8.92282 112.222 8.92756C112.407 8.93229 112.546 8.93939 112.641 8.94886V10.6534C112.584 10.6392 112.454 10.6179 112.25 10.5895C112.051 10.5563 111.841 10.5398 111.618 10.5398C111.088 10.5398 110.614 10.651 110.198 10.8736C109.786 11.0914 109.459 11.3944 109.218 11.7827C108.981 12.1662 108.863 12.6042 108.863 13.0966V20H107.186ZM122.355 11.5341L120.849 11.9602C120.755 11.7093 120.615 11.4654 120.43 11.2287C120.25 10.9872 120.004 10.7884 119.692 10.6321C119.379 10.4759 118.979 10.3977 118.491 10.3977C117.824 10.3977 117.268 10.5516 116.822 10.8594C116.382 11.1624 116.162 11.5483 116.162 12.017C116.162 12.4337 116.313 12.7628 116.616 13.0043C116.92 13.2457 117.393 13.447 118.037 13.608L119.656 14.0057C120.632 14.2424 121.358 14.6046 121.837 15.0923C122.315 15.5753 122.554 16.1979 122.554 16.9602C122.554 17.5852 122.374 18.1439 122.014 18.6364C121.659 19.1288 121.162 19.517 120.523 19.8011C119.884 20.0852 119.14 20.2273 118.293 20.2273C117.18 20.2273 116.259 19.9858 115.53 19.5028C114.801 19.0199 114.339 18.3144 114.145 17.3864L115.736 16.9886C115.887 17.5758 116.174 18.0161 116.595 18.3097C117.021 18.6032 117.578 18.75 118.264 18.75C119.045 18.75 119.666 18.5843 120.125 18.2528C120.589 17.9167 120.821 17.5142 120.821 17.0455C120.821 16.6667 120.688 16.3494 120.423 16.0938C120.158 15.8333 119.751 15.6392 119.202 15.5114L117.384 15.0852C116.384 14.8485 115.651 14.4815 115.182 13.9844C114.718 13.4825 114.486 12.8551 114.486 12.1023C114.486 11.4867 114.659 10.9422 115.004 10.4688C115.355 9.99527 115.83 9.62358 116.432 9.35369C117.038 9.08381 117.724 8.94886 118.491 8.94886C119.571 8.94886 120.419 9.18561 121.034 9.65909C121.654 10.1326 122.095 10.7576 122.355 11.5341Z" fill="black"/>
<g clip-path="url(#clip0_3915_28291)">
<path d="M24 3.98682V24.9868H13V22.9868H22V3.98682C22 3.43482 21.552 2.98682 21 2.98682H9C8.448 2.98682 8 3.43482 8 3.98682V11.7698C7.417 11.3778 6.737 11.1198 6 11.0378V3.98682C6 2.33282 7.346 0.986816 9 0.986816H21C22.654 0.986816 24 2.33282 24 3.98682ZM11 7.98682H19V5.98682H11V7.98682ZM11 11.9868H17V9.98682H11V11.9868ZM20 17.4868C20 19.4168 18.43 20.9868 16.5 20.9868C14.57 20.9868 13 19.4168 13 17.4868C13 15.5568 14.57 13.9868 16.5 13.9868C18.43 13.9868 20 15.5568 20 17.4868ZM18 17.4868C18 16.6598 17.327 15.9868 16.5 15.9868C15.673 15.9868 15 16.6598 15 17.4868C15 18.3138 15.673 18.9868 16.5 18.9868C17.327 18.9868 18 18.3138 18 17.4868ZM10 22.9868H11V24.9868H0V22.9868H1V21.4868C1 20.1078 2.121 18.9868 3.5 18.9868H4.481C3.789 17.5598 3 16.2628 3 15.4868C3 14.1058 4.119 13.0368 5.5 13.0368C6.881 13.0368 8 14.1058 8 15.4868C8 16.2628 7.211 17.5598 6.519 18.9868H7.5C8.879 18.9868 10 20.1078 10 21.4868V22.9868ZM3 22.9868H8V21.4868C8 21.2118 7.775 20.9868 7.5 20.9868H3.5C3.225 20.9868 3 21.2118 3 21.4868V22.9868Z" fill="#A07B4F"/>
</g>
<defs>
<clipPath id="clip0_3915_28291">
<rect width="24" height="24" fill="white" transform="translate(0 0.986816)"/>
</clipPath>
</defs>
</svg>
