<svg width="50" height="50" viewBox="0 0 50 50" fill="none" xmlns="http://www.w3.org/2000/svg">
<g id="event_FILL0_wght400_GRAD0_opsz24 1">
<path id="contract_edit" d="M17.25 19.0035V15.2882H34.125V19.0035H17.25ZM17.25 24.5764V20.8611H34.125V24.5764H17.25ZM22.875 43.1528H11.625C10.0625 43.1528 8.73438 42.611 7.64062 41.5273C6.54687 40.4437 6 39.1279 6 37.5799V32.0069H11.625V6H39.75V22.7652C39.125 22.7033 38.4922 22.7265 37.8516 22.8349C37.2109 22.9432 36.5938 23.1367 36 23.4154V9.71528H15.375V32.0069H26.625L22.875 35.7222H9.75V37.5799C9.75 38.1062 9.92969 38.5474 10.2891 38.9034C10.6484 39.2595 11.0938 39.4375 11.625 39.4375H22.875V43.1528ZM26.625 43.1528V37.4405L36.9844 27.2235C37.2656 26.9449 37.5781 26.7436 37.9219 26.6198C38.2656 26.496 38.6094 26.434 38.9531 26.434C39.3281 26.434 39.6875 26.5037 40.0312 26.643C40.375 26.7823 40.6875 26.9913 40.9688 27.27L42.7031 28.9883C42.9531 29.2669 43.1484 29.5765 43.2891 29.9171C43.4297 30.2577 43.5 30.5982 43.5 30.9388C43.5 31.2794 43.4375 31.6277 43.3125 31.9837C43.1875 32.3398 42.9844 32.6571 42.7031 32.9358L32.3906 43.1528H26.625ZM29.4375 40.3663H31.2188L36.8906 34.7005L36.0469 33.8181L35.1562 32.9822L29.4375 38.6016V40.3663ZM36.0469 33.8181L35.1562 32.9822L36.8906 34.7005L36.0469 33.8181Z" fill="white"/>
</g>
</svg>
