<svg width="24" height="25" viewBox="0 0 24 25" fill="none" xmlns="http://www.w3.org/2000/svg">
<mask id="mask0_3915_28288" style="mask-type:alpha" maskUnits="userSpaceOnUse" x="0" y="0" width="24" height="25">
<rect y="0.986816" width="24" height="24" fill="#D9D9D9"/>
</mask>
<g mask="url(#mask0_3915_28288)">
<path d="M9 9.98682V7.98682H18V9.98682H9ZM9 12.9868V10.9868H18V12.9868H9ZM12 22.9868H6C5.16667 22.9868 4.45833 22.6952 3.875 22.1118C3.29167 21.5285 3 20.8202 3 19.9868V16.9868H6V2.98682H21V12.0118C20.6667 11.9785 20.3292 11.991 19.9875 12.0493C19.6458 12.1076 19.3167 12.2118 19 12.3618V4.98682H8V16.9868H14L12 18.9868H5V19.9868C5 20.2701 5.09583 20.5076 5.2875 20.6993C5.47917 20.891 5.71667 20.9868 6 20.9868H12V22.9868ZM14 22.9868V19.9118L19.525 14.4118C19.675 14.2618 19.8417 14.1535 20.025 14.0868C20.2083 14.0202 20.3917 13.9868 20.575 13.9868C20.775 13.9868 20.9667 14.0243 21.15 14.0993C21.3333 14.1743 21.5 14.2868 21.65 14.4368L22.575 15.3618C22.7083 15.5118 22.8125 15.6785 22.8875 15.8618C22.9625 16.0451 23 16.2285 23 16.4118C23 16.5951 22.9667 16.7826 22.9 16.9743C22.8333 17.166 22.725 17.3368 22.575 17.4868L17.075 22.9868H14ZM15.5 21.4868H16.45L19.475 18.4368L19.025 17.9618L18.55 17.5118L15.5 20.5368V21.4868ZM19.025 17.9618L18.55 17.5118L19.475 18.4368L19.025 17.9618Z" fill="#A07B4F"/>
</g>
</svg>
