<svg width="150" height="27" viewBox="0 0 150 27" fill="none" xmlns="http://www.w3.org/2000/svg">
<path d="M12.6724 26.3602C10.83 26.3602 9.14514 26.0482 7.61786 25.4242C6.09059 24.8002 4.76938 23.9122 3.65423 22.7602C2.53908 21.5842 1.66635 20.2042 1.03604 18.6202C0.429983 17.0122 0.126953 15.2602 0.126953 13.3642C0.126953 11.5402 0.454227 9.84816 1.10877 8.28816C1.76332 6.72816 2.67241 5.36016 3.83604 4.18416C4.99968 3.00816 6.35726 2.09616 7.90877 1.44816C9.46029 0.800164 11.1451 0.476164 12.9633 0.476164C14.1997 0.476164 15.3997 0.656164 16.5633 1.01616C17.727 1.37616 18.7936 1.88016 19.7633 2.52816C20.733 3.15216 21.5451 3.88416 22.1997 4.72416L19.1815 8.00016C18.5512 7.35216 17.8967 6.81216 17.2179 6.38016C16.5633 5.92416 15.8724 5.58816 15.1451 5.37216C14.4421 5.13216 13.7148 5.01216 12.9633 5.01216C11.8482 5.01216 10.7936 5.21616 9.79968 5.62416C8.82999 6.03216 7.9815 6.60816 7.25423 7.35216C6.5512 8.09616 5.99362 8.98416 5.5815 10.0162C5.16938 11.0242 4.96332 12.1522 4.96332 13.4002C4.96332 14.6722 5.15726 15.8242 5.54514 16.8562C5.95726 17.8882 6.52696 18.7762 7.25423 19.5202C8.00574 20.2642 8.89059 20.8402 9.90877 21.2482C10.9512 21.6322 12.0906 21.8242 13.327 21.8242C14.127 21.8242 14.9027 21.7162 15.6542 21.5002C16.4057 21.2842 17.0967 20.9842 17.727 20.6002C18.3815 20.1922 18.9754 19.7242 19.5088 19.1962L21.836 22.9042C21.2542 23.5522 20.4785 24.1402 19.5088 24.6682C18.5391 25.1962 17.4482 25.6162 16.236 25.9282C15.0482 26.2162 13.8603 26.3602 12.6724 26.3602ZM36.9122 26.2162C34.9 26.2162 33.1061 25.7962 31.5303 24.9562C29.9546 24.0922 28.7061 22.9162 27.7849 21.4282C26.8879 19.9162 26.4394 18.2122 26.4394 16.3162V0.764163H31.2031V15.9922C31.2031 17.1202 31.4576 18.1282 31.9667 19.0162C32.5 19.8802 33.2031 20.5762 34.0758 21.1042C34.9485 21.6322 35.894 21.8962 36.9122 21.8962C38.0273 21.8962 39.0334 21.6322 39.9303 21.1042C40.8273 20.5762 41.5303 19.8802 42.0394 19.0162C42.5728 18.1282 42.8394 17.1202 42.8394 15.9922V0.764163H47.4213V16.3162C47.4213 18.2122 46.9607 19.9162 46.0394 21.4282C45.1425 22.9162 43.9061 24.0922 42.3304 24.9562C40.7546 25.7962 38.9485 26.2162 36.9122 26.2162ZM53.9676 26.0002V0.800164H58.2221L72.9857 20.4922L72.1857 20.6362C72.0888 19.9642 72.0039 19.2802 71.9312 18.5842C71.8585 17.8642 71.7857 17.1202 71.713 16.3522C71.6645 15.5842 71.6161 14.7802 71.5676 13.9402C71.5433 13.1002 71.5191 12.2242 71.4948 11.3122C71.4706 10.3762 71.4585 9.39216 71.4585 8.36016V0.800164H76.1494V26.0002H71.8221L56.9857 6.59616L57.9312 6.34416C58.0524 7.68816 58.1494 8.84016 58.2221 9.80016C58.3191 10.7362 58.3918 11.5522 58.4403 12.2482C58.4888 12.9202 58.5251 13.4842 58.5494 13.9402C58.5979 14.3962 58.6221 14.8162 58.6221 15.2002C58.6464 15.5602 58.6585 15.9082 58.6585 16.2442V26.0002H53.9676ZM88.0712 26.0002V5.12016H80.7986V0.800164H100.289V5.12016H92.7985V26.0002H88.0712ZM114.807 26.3602C112.989 26.3602 111.304 26.0362 109.752 25.3882C108.201 24.7402 106.843 23.8402 105.68 22.6882C104.54 21.5122 103.655 20.1322 103.025 18.5482C102.395 16.9642 102.08 15.2362 102.08 13.3642C102.08 11.4922 102.395 9.76416 103.025 8.18016C103.655 6.59616 104.54 5.22816 105.68 4.07616C106.843 2.90016 108.201 1.98816 109.752 1.34016C111.304 0.692164 112.989 0.368164 114.807 0.368164C116.649 0.368164 118.346 0.692164 119.898 1.34016C121.449 1.98816 122.795 2.90016 123.934 4.07616C125.074 5.25216 125.958 6.63216 126.589 8.21616C127.219 9.77616 127.534 11.4922 127.534 13.3642C127.534 15.2122 127.219 16.9282 126.589 18.5122C125.958 20.0962 125.074 21.4762 123.934 22.6522C122.795 23.8282 121.449 24.7402 119.898 25.3882C118.346 26.0362 116.649 26.3602 114.807 26.3602ZM114.807 21.8962C115.971 21.8962 117.025 21.6922 117.971 21.2842C118.94 20.8522 119.777 20.2522 120.48 19.4842C121.183 18.6922 121.728 17.7802 122.116 16.7482C122.528 15.7162 122.734 14.5882 122.734 13.3642C122.734 12.1402 122.528 11.0122 122.116 9.98016C121.728 8.94816 121.183 8.04816 120.48 7.28016C119.777 6.48816 118.94 5.88816 117.971 5.48016C117.025 5.04816 115.971 4.83216 114.807 4.83216C113.668 4.83216 112.613 5.04816 111.643 5.48016C110.674 5.88816 109.837 6.47616 109.134 7.24416C108.431 8.01216 107.886 8.91216 107.498 9.94416C107.11 10.9762 106.916 12.1162 106.916 13.3642C106.916 14.5882 107.11 15.7282 107.498 16.7842C107.886 17.8162 108.431 18.7162 109.134 19.4842C109.837 20.2522 110.674 20.8522 111.643 21.2842C112.613 21.6922 113.668 21.8962 114.807 21.8962ZM129.791 26.0002V22.7242L144.009 3.93216L145.137 5.19216H130.737V0.800164H149.464V4.04016L135.318 22.8682L134.155 21.6802H149.864V26.0002H129.791Z" fill="#A07B4F"/>
</svg>
