<svg width="50" height="64" viewBox="0 0 50 64" fill="none" xmlns="http://www.w3.org/2000/svg">
<g id="envelope-marker_5074130 1" clip-path="url(#clip0_3915_27775)">
<path id="Vector" d="M43.75 39.3882H50V63.0132H0V17.0757C0 14.639 0.768227 12.3021 2.13568 10.5791C3.50313 8.85615 5.3578 7.88818 7.29167 7.88818H27.0833V15.7632H7.29167C7.0154 15.7632 6.75045 15.9015 6.5551 16.1476C6.35975 16.3937 6.25 16.7276 6.25 17.0757V18.2832L21.5854 37.6058C22.5052 38.7127 23.7281 39.3303 25 39.3303C26.2719 39.3303 27.4948 38.7127 28.4146 37.6058L29.0958 36.7474C29.7437 37.5843 30.5181 38.2492 31.3733 38.7027C32.2285 39.1563 33.1471 39.3894 34.075 39.3882H35.8396L32.8333 43.1734C31.8047 44.4701 30.5833 45.4987 29.2391 46.2005C27.8948 46.9023 26.454 47.2635 24.999 47.2635C23.5439 47.2635 22.1031 46.9023 20.7588 46.2005C19.4146 45.4987 18.1932 44.4701 17.1646 43.1734L6.25 29.4132V55.1382H43.75V39.3882ZM31.25 0.0131836V30.5866C31.2506 31.2537 31.4006 31.907 31.6827 32.4715C31.9649 33.0359 32.3678 33.4886 32.8451 33.7773C33.3224 34.0661 33.8547 34.1792 34.3807 34.1038C34.9068 34.0283 35.4052 33.7673 35.8187 33.3507L40.625 28.5102L45.4312 33.3507C45.8448 33.7673 46.3432 34.0283 46.8693 34.1038C47.3953 34.1792 47.9276 34.0661 48.4049 33.7773C48.8822 33.4886 49.2851 33.0359 49.5673 32.4715C49.8494 31.907 49.9994 31.2537 50 30.5866V0.0131836H31.25Z" fill="black"/>
</g>
<defs>
<clipPath id="clip0_3915_27775">
<rect width="50" height="63" fill="white" transform="translate(0 0.0131836)"/>
</clipPath>
</defs>
</svg>
