<svg width="50" height="50" viewBox="0 0 50 50" fill="none" xmlns="http://www.w3.org/2000/svg">
<g id="event_FILL0_wght400_GRAD0_opsz24 1">
<path id="Vector" d="M30.2083 37.1526C28.75 37.1526 27.5174 36.6538 26.5104 35.6562C25.5035 34.6586 25 33.4373 25 31.9925C25 30.5477 25.5035 29.3265 26.5104 28.3288C27.5174 27.3312 28.75 26.8324 30.2083 26.8324C31.6667 26.8324 32.8993 27.3312 33.9062 28.3288C34.9132 29.3265 35.4167 30.5477 35.4167 31.9925C35.4167 33.4373 34.9132 34.6586 33.9062 35.6562C32.8993 36.6538 31.6667 37.1526 30.2083 37.1526ZM10.4167 45.4088C9.27083 45.4088 8.28993 45.0046 7.47396 44.1962C6.65799 43.3878 6.25 42.4159 6.25 41.2807V12.3841C6.25 11.2489 6.65799 10.2771 7.47396 9.46864C8.28993 8.66022 9.27083 8.25602 10.4167 8.25602H12.5V4.12793H16.6667V8.25602H33.3333V4.12793H37.5V8.25602H39.5833C40.7292 8.25602 41.7101 8.66022 42.526 9.46864C43.342 10.2771 43.75 11.2489 43.75 12.3841V41.2807C43.75 42.4159 43.342 43.3878 42.526 44.1962C41.7101 45.0046 40.7292 45.4088 39.5833 45.4088H10.4167ZM10.4167 41.2807H39.5833V20.6403H10.4167V41.2807ZM10.4167 16.5122H39.5833V12.3841H10.4167V16.5122Z" fill="white"/>
</g>
</svg>
