<svg width="24" height="24" viewBox="0 0 24 24" fill="none" xmlns="http://www.w3.org/2000/svg">
<mask id="mask0_4199_558" style="mask-type:alpha" maskUnits="userSpaceOnUse" x="0" y="0" width="24" height="24">
<rect width="24" height="24" fill="#D9D9D9"/>
</mask>
<g mask="url(#mask0_4199_558)">
<path d="M1.16797 20V17.2C1.16797 16.6333 1.33831 16.1125 1.679 15.6375C2.01968 15.1625 2.47231 14.8 3.03688 14.55C4.24388 14.0333 5.47035 13.6458 6.71629 13.3875C7.96223 13.1292 9.22763 13 10.5125 13C11.7974 13 13.0628 13.1292 14.3087 13.3875C15.5547 13.6458 16.7811 14.0333 17.9881 14.55C18.5527 14.8 19.0053 15.1625 19.346 15.6375C19.6867 16.1125 19.857 16.6333 19.857 17.2V20H1.16797ZM22.1932 20V17C22.1932 16.2667 21.9547 15.5625 21.4777 14.8875C21.0008 14.2125 20.3243 13.6333 19.4482 13.15C20.4411 13.25 21.3755 13.4208 22.2516 13.6625C23.1276 13.9042 23.9453 14.2 24.7045 14.55C25.4054 14.8833 25.9407 15.2542 26.3106 15.6625C26.6805 16.0708 26.8654 16.5167 26.8654 17V20H22.1932ZM10.5125 12C9.22763 12 8.1277 11.6083 7.21272 10.825C6.29773 10.0417 5.84024 9.1 5.84024 8C5.84024 6.9 6.29773 5.95833 7.21272 5.175C8.1277 4.39167 9.22763 4 10.5125 4C11.7974 4 12.8973 4.39167 13.8123 5.175C14.7273 5.95833 15.1848 6.9 15.1848 8C15.1848 9.1 14.7273 10.0417 13.8123 10.825C12.8973 11.6083 11.7974 12 10.5125 12ZM22.1932 8C22.1932 9.1 21.7357 10.0417 20.8207 10.825C19.9057 11.6083 18.8058 12 17.5209 12C17.3068 12 17.0342 11.9792 16.7033 11.9375C16.3723 11.8958 16.0998 11.85 15.8856 11.8C16.4112 11.2667 16.8152 10.675 17.0975 10.025C17.3798 9.375 17.5209 8.7 17.5209 8C17.5209 7.3 17.3798 6.625 17.0975 5.975C16.8152 5.325 16.4112 4.73333 15.8856 4.2C16.1582 4.11667 16.4307 4.0625 16.7033 4.0375C16.9758 4.0125 17.2484 4 17.5209 4C18.8058 4 19.9057 4.39167 20.8207 5.175C21.7357 5.95833 22.1932 6.9 22.1932 8ZM3.5041 18H17.5209V17.2C17.5209 17.0167 17.4674 16.85 17.3603 16.7C17.2532 16.55 17.1121 16.4333 16.9369 16.35C15.8856 15.9 14.8246 15.5625 13.7539 15.3375C12.6832 15.1125 11.6027 15 10.5125 15C9.42231 15 8.34185 15.1125 7.27112 15.3375C6.20039 15.5625 5.1394 15.9 4.08814 16.35C3.91293 16.4333 3.77179 16.55 3.66471 16.7C3.55764 16.85 3.5041 17.0167 3.5041 17.2V18ZM10.5125 10C11.1549 10 11.7049 9.80417 12.1624 9.4125C12.6199 9.02083 12.8486 8.55 12.8486 8C12.8486 7.45 12.6199 6.97917 12.1624 6.5875C11.7049 6.19583 11.1549 6 10.5125 6C9.87007 6 9.3201 6.19583 8.86261 6.5875C8.40512 6.97917 8.17637 7.45 8.17637 8C8.17637 8.55 8.40512 9.02083 8.86261 9.4125C9.3201 9.80417 9.87007 10 10.5125 10Z" fill="white"/>
</g>
</svg>
