<svg width="24" height="25" viewBox="0 0 24 25" fill="none" xmlns="http://www.w3.org/2000/svg">
<g id="group">
<mask id="mask0_3915_28310" style="mask-type:alpha" maskUnits="userSpaceOnUse" x="0" y="0" width="24" height="25">
<rect id="Bounding box" y="0.986816" width="24" height="24" fill="#D9D9D9"/>
</mask>
<g mask="url(#mask0_3915_28310)">
<path id="group_2" d="M1.16797 20.9867V18.1867C1.16797 17.62 1.33831 17.0992 1.679 16.6242C2.01968 16.1492 2.47231 15.7867 3.03688 15.5367C4.24388 15.02 5.47035 14.6325 6.71629 14.3742C7.96223 14.1159 9.22763 13.9867 10.5125 13.9867C11.7974 13.9867 13.0628 14.1159 14.3087 14.3742C15.5547 14.6325 16.7811 15.02 17.9881 15.5367C18.5527 15.7867 19.0053 16.1492 19.346 16.6242C19.6867 17.0992 19.857 17.62 19.857 18.1867V20.9867H1.16797ZM22.1932 20.9867V17.9867C22.1932 17.2534 21.9547 16.5492 21.4777 15.8742C21.0008 15.1992 20.3243 14.62 19.4482 14.1367C20.4411 14.2367 21.3755 14.4075 22.2516 14.6492C23.1276 14.8909 23.9453 15.1867 24.7045 15.5367C25.4054 15.87 25.9407 16.2409 26.3106 16.6492C26.6805 17.0575 26.8654 17.5034 26.8654 17.9867V20.9867H22.1932ZM10.5125 12.9867C9.22763 12.9867 8.1277 12.595 7.21272 11.8117C6.29773 11.0284 5.84024 10.0867 5.84024 8.98669C5.84024 7.88669 6.29773 6.94503 7.21272 6.16169C8.1277 5.37836 9.22763 4.98669 10.5125 4.98669C11.7974 4.98669 12.8973 5.37836 13.8123 6.16169C14.7273 6.94503 15.1848 7.88669 15.1848 8.98669C15.1848 10.0867 14.7273 11.0284 13.8123 11.8117C12.8973 12.595 11.7974 12.9867 10.5125 12.9867ZM22.1932 8.98669C22.1932 10.0867 21.7357 11.0284 20.8207 11.8117C19.9057 12.595 18.8058 12.9867 17.5209 12.9867C17.3068 12.9867 17.0342 12.9659 16.7033 12.9242C16.3723 12.8825 16.0998 12.8367 15.8856 12.7867C16.4112 12.2534 16.8152 11.6617 17.0975 11.0117C17.3798 10.3617 17.5209 9.68669 17.5209 8.98669C17.5209 8.28669 17.3798 7.61169 17.0975 6.96169C16.8152 6.31169 16.4112 5.72003 15.8856 5.18669C16.1582 5.10336 16.4307 5.04919 16.7033 5.02419C16.9758 4.99919 17.2484 4.98669 17.5209 4.98669C18.8058 4.98669 19.9057 5.37836 20.8207 6.16169C21.7357 6.94503 22.1932 7.88669 22.1932 8.98669ZM3.5041 18.9867H17.5209V18.1867C17.5209 18.0034 17.4674 17.8367 17.3603 17.6867C17.2532 17.5367 17.1121 17.42 16.9369 17.3367C15.8856 16.8867 14.8246 16.5492 13.7539 16.3242C12.6832 16.0992 11.6027 15.9867 10.5125 15.9867C9.42231 15.9867 8.34185 16.0992 7.27112 16.3242C6.20039 16.5492 5.1394 16.8867 4.08814 17.3367C3.91293 17.42 3.77179 17.5367 3.66471 17.6867C3.55764 17.8367 3.5041 18.0034 3.5041 18.1867V18.9867ZM10.5125 10.9867C11.1549 10.9867 11.7049 10.7909 12.1624 10.3992C12.6199 10.0075 12.8486 9.53669 12.8486 8.98669C12.8486 8.43669 12.6199 7.96586 12.1624 7.57419C11.7049 7.18253 11.1549 6.98669 10.5125 6.98669C9.87007 6.98669 9.3201 7.18253 8.86261 7.57419C8.40512 7.96586 8.17637 8.43669 8.17637 8.98669C8.17637 9.53669 8.40512 10.0075 8.86261 10.3992C9.3201 10.7909 9.87007 10.9867 10.5125 10.9867Z" fill="#A07B4F"/>
</g>
</g>
</svg>
