<svg width="24" height="25" viewBox="0 0 24 25" fill="none" xmlns="http://www.w3.org/2000/svg">
<g clip-path="url(#clip0_4083_5188)">
<path d="M24 3.98682V24.9868H13V22.9868H22V3.98682C22 3.43482 21.552 2.98682 21 2.98682H9C8.448 2.98682 8 3.43482 8 3.98682V11.7698C7.417 11.3778 6.737 11.1198 6 11.0378V3.98682C6 2.33282 7.346 0.986816 9 0.986816H21C22.654 0.986816 24 2.33282 24 3.98682ZM11 7.98682H19V5.98682H11V7.98682ZM11 11.9868H17V9.98682H11V11.9868ZM20 17.4868C20 19.4168 18.43 20.9868 16.5 20.9868C14.57 20.9868 13 19.4168 13 17.4868C13 15.5568 14.57 13.9868 16.5 13.9868C18.43 13.9868 20 15.5568 20 17.4868ZM18 17.4868C18 16.6598 17.327 15.9868 16.5 15.9868C15.673 15.9868 15 16.6598 15 17.4868C15 18.3138 15.673 18.9868 16.5 18.9868C17.327 18.9868 18 18.3138 18 17.4868ZM10 22.9868H11V24.9868H0V22.9868H1V21.4868C1 20.1078 2.121 18.9868 3.5 18.9868H4.481C3.789 17.5598 3 16.2628 3 15.4868C3 14.1058 4.119 13.0368 5.5 13.0368C6.881 13.0368 8 14.1058 8 15.4868C8 16.2628 7.211 17.5598 6.519 18.9868H7.5C8.879 18.9868 10 20.1078 10 21.4868V22.9868ZM3 22.9868H8V21.4868C8 21.2118 7.775 20.9868 7.5 20.9868H3.5C3.225 20.9868 3 21.2118 3 21.4868V22.9868Z" fill="#A07B4F"/>
</g>
<defs>
<clipPath id="clip0_4083_5188">
<rect width="24" height="24" fill="white" transform="translate(0 0.986816)"/>
</clipPath>
</defs>
</svg>
