<svg width="47" height="61" viewBox="0 0 47 61" fill="none" xmlns="http://www.w3.org/2000/svg">
<g id="legal_13794759 1" clip-path="url(#clip0_3915_27773)">
<path id="Vector" d="M47 7.52637V60.0264H24.0833V55.0264H42.8333V7.52637C42.8333 6.14637 41.9 5.02637 40.75 5.02637H15.75C14.6 5.02637 13.6667 6.14637 13.6667 7.52637V26.9839C12.4521 26.0039 11.0354 25.3589 9.5 25.1539V7.52637C9.5 3.39137 12.3042 0.0263672 15.75 0.0263672H40.75C44.1958 0.0263672 47 3.39137 47 7.52637ZM19.9167 17.5264H36.5833V12.5264H19.9167V17.5264ZM19.9167 27.5264H32.4167V22.5264H19.9167V27.5264ZM38.6667 41.2764C38.6667 46.1014 35.3958 50.0264 31.375 50.0264C27.3542 50.0264 24.0833 46.1014 24.0833 41.2764C24.0833 36.4514 27.3542 32.5264 31.375 32.5264C35.3958 32.5264 38.6667 36.4514 38.6667 41.2764ZM34.5 41.2764C34.5 39.2089 33.0979 37.5264 31.375 37.5264C29.6521 37.5264 28.25 39.2089 28.25 41.2764C28.25 43.3439 29.6521 45.0264 31.375 45.0264C33.0979 45.0264 34.5 43.3439 34.5 41.2764ZM17.8333 55.0264H19.9167V60.0264H-3V55.0264H-0.916667V51.2764C-0.916667 47.8289 1.41875 45.0264 4.29167 45.0264H6.33542C4.89375 41.4589 3.25 38.2164 3.25 36.2764C3.25 32.8239 5.58125 30.1514 8.45833 30.1514C11.3354 30.1514 13.6667 32.8239 13.6667 36.2764C13.6667 38.2164 12.0229 41.4589 10.5812 45.0264H12.625C15.4979 45.0264 17.8333 47.8289 17.8333 51.2764V55.0264ZM3.25 55.0264H13.6667V51.2764C13.6667 50.5889 13.1979 50.0264 12.625 50.0264H4.29167C3.71875 50.0264 3.25 50.5889 3.25 51.2764V55.0264Z" fill="black"/>
</g>
<defs>
<clipPath id="clip0_3915_27773">
<rect width="50" height="60" fill="white" transform="translate(-3 0.0263672)"/>
</clipPath>
</defs>
</svg>
