<svg width="35" height="35" viewBox="0 0 35 35" fill="none" xmlns="http://www.w3.org/2000/svg">
<g clip-path="url(#clip0_3565_8828)">
<path d="M31.2527 0H3.74732C1.67773 0 0 1.67773 0 3.74732V31.2527C0 33.3223 1.67773 35 3.74732 35H31.2527C33.3223 35 35 33.3223 35 31.2527V3.74732C35 1.67773 33.3223 0 31.2527 0Z" fill="#353535"/>
<path d="M10.6967 15.1236C11.1853 14.1789 12.5366 14.1793 13.0261 15.1243L16.1093 21.0759C16.3005 21.445 16.3056 21.8827 16.1229 22.2559L11.3401 32.0278C11.1201 32.4771 10.6635 32.762 10.163 32.762H3.73033C2.74714 32.762 2.11273 31.7201 2.56428 30.8471L10.6967 15.1236Z" fill="#A07B4F"/>
<path d="M18.6955 3.71558C18.2813 2.89891 17.1168 2.89347 16.695 3.70622L13.4213 10.0145C13.2531 10.3387 13.2528 10.7243 13.4205 11.0487L24.3325 32.1542C24.5255 32.5276 24.9107 32.7621 25.3311 32.7621H31.5954C32.434 32.7621 32.9773 31.8772 32.5981 31.1294L18.6955 3.71558Z" fill="#B0A292"/>
<path d="M17.8741 29.0418C18.5984 29.0418 19.1856 28.4546 19.1856 27.7303C19.1856 27.0059 18.5984 26.4187 17.8741 26.4187C17.1497 26.4187 16.5625 27.0059 16.5625 27.7303C16.5625 28.4546 17.1497 29.0418 17.8741 29.0418Z" fill="#A07B4F"/>
</g>
<defs>
<clipPath id="clip0_3565_8828">
<rect width="35" height="35" fill="white"/>
</clipPath>
</defs>
</svg>
