<svg width="23" height="27" viewBox="0 0 23 27" fill="none" xmlns="http://www.w3.org/2000/svg">
<path fill-rule="evenodd" clip-rule="evenodd" d="M14.7656 0C14.823 0 14.8793 0.00484109 14.934 0.0141368L15.1141 0.0152C15.3861 0.0152 15.6461 0.125867 15.8355 0.321867L22.5901 7.35787C22.7675 7.5432 22.8676 7.79253 22.8676 8.04987V20.3032C22.8888 23.6485 20.2808 26.3672 16.9301 26.4872H6.07681C2.82317 26.4173 0.213751 23.7881 0.1333 20.5675L0.132812 5.9872C0.211479 2.6792 2.94215 0.0152 6.22481 0.0152L14.5972 0.0141368C14.652 0.00484109 14.7082 0 14.7656 0ZM13.7648 2.01467L6.22881 2.0152C4.01948 2.0152 2.18481 3.80453 2.13281 6.0112V20.3032C2.08481 22.5712 3.87148 24.4379 6.11815 24.4872H16.8955C19.1208 24.4072 20.8821 22.5712 20.8676 20.3099L20.8675 9.31067L18.1896 9.312C15.7483 9.30533 13.7656 7.316 13.7656 4.87867L13.7648 2.01467ZM10.9867 9.5452C11.2627 9.5452 11.5127 9.6572 11.6937 9.8382L11.6951 9.83907L14.8231 12.9804C15.2124 13.3724 15.2111 14.0044 14.8204 14.3937C14.4284 14.7831 13.7951 14.7831 13.4057 14.3911L11.9861 12.9653L11.9867 18.5999C11.9867 19.1519 11.5387 19.5999 10.9867 19.5999C10.4347 19.5999 9.98668 19.1519 9.98668 18.5999L9.98615 12.9653L8.56841 14.3911C8.37375 14.5884 8.11641 14.6857 7.86041 14.6857C7.60575 14.6857 7.34975 14.5884 7.15508 14.3937C6.76441 14.0044 6.76175 13.3724 7.15241 12.9804L10.2777 9.83907L10.3223 9.79795C10.3416 9.78079 10.3616 9.76436 10.3822 9.74871L10.2777 9.83907C10.3149 9.80175 10.355 9.76812 10.3973 9.73818C10.5619 9.6168 10.766 9.5452 10.9867 9.5452ZM15.7648 3.136L15.7656 4.87867C15.7656 6.21733 16.8536 7.308 18.1923 7.312L19.7715 7.31067L15.7648 3.136Z" fill="black"/>
</svg>
