<svg width="35" height="64" viewBox="0 0 35 64" fill="none" xmlns="http://www.w3.org/2000/svg">
<path id="Vector" d="M4.33222 55.1382H17.3289V63.0132H0V9.20068C0 4.13443 2.2672 0.0131836 5.05426 0.0131836H20.9391C23.7261 0.0131836 25.9933 4.13443 25.9933 9.20068V26.5283C24.2229 27.1846 22.7037 29.0483 21.6611 31.5946V9.20068C21.6611 8.47881 21.3362 7.88818 20.9391 7.88818H5.05426C4.65714 7.88818 4.33222 8.47881 4.33222 9.20068V55.1382ZM7.22037 47.2632H11.5526V39.3882H7.22037V47.2632ZM14.4407 47.2632H18.773V39.3882H14.4407V47.2632ZM11.5526 26.2632H7.22037V34.1382H11.5526V26.2632ZM14.4407 34.1382H18.773V26.2632H14.4407V34.1382ZM11.5526 13.1382H7.22037V21.0132H11.5526V13.1382ZM14.4407 21.0132H18.773V13.1382H14.4407V21.0132ZM30.3256 49.8882H24.5493C22.1608 49.8882 20.217 53.4214 20.217 57.7632V63.0132H34.6578V57.7632C34.6578 53.4214 32.7141 49.8882 30.3256 49.8882ZM23.1052 39.3882C23.1052 43.7299 25.0489 47.2632 27.4374 47.2632C29.8259 47.2632 31.7696 43.7299 31.7696 39.3882C31.7696 35.0464 29.8259 31.5132 27.4374 31.5132C25.0489 31.5132 23.1052 35.0464 23.1052 39.3882Z" fill="black"/>
</svg>
