<svg width="50" height="64" viewBox="0 0 50 64" fill="none" xmlns="http://www.w3.org/2000/svg">
<path id="Vector" d="M43.75 39.3882H35.4167V35.4507C35.4167 33.2798 36.8187 31.5132 38.5417 31.5132C39.4437 31.5132 40.2708 31.9804 40.8729 32.8283C42.0271 34.4427 44.0021 34.5844 45.2854 33.1302C46.5708 31.6786 46.6792 29.1901 45.5271 27.5704C43.7479 25.0714 41.2021 23.6382 38.5396 23.6382C33.3708 23.6382 29.1646 28.9381 29.1646 35.4507V41.3963C27.8854 42.8374 27.0812 44.9322 27.0812 47.2632V55.1382C27.0812 59.4878 29.8792 63.0132 33.3312 63.0132H43.7479C47.2 63.0132 49.9979 59.4878 49.9979 55.1382V47.2632C49.9979 42.9136 47.2021 39.3882 43.75 39.3882ZM38.5417 55.1382C36.8167 55.1382 35.4167 53.3742 35.4167 51.2007C35.4167 49.0272 36.8167 47.2632 38.5417 47.2632C40.2667 47.2632 41.6667 49.0272 41.6667 51.2007C41.6667 53.3742 40.2667 55.1382 38.5417 55.1382ZM16.6667 0.0131836C9.77292 0.0131836 4.16667 7.07706 4.16667 15.7632C4.16667 24.4493 9.77292 31.5132 16.6667 31.5132C23.5604 31.5132 29.1667 24.4493 29.1667 15.7632C29.1667 7.07706 23.5604 0.0131836 16.6667 0.0131836ZM16.6667 23.6382C13.2208 23.6382 10.4167 20.1049 10.4167 15.7632C10.4167 11.4214 13.2208 7.88818 16.6667 7.88818C20.1125 7.88818 22.9167 11.4214 22.9167 15.7632C22.9167 20.1049 20.1125 23.6382 16.6667 23.6382ZM22.8333 42.0631C22.4375 44.1788 20.7542 45.4861 19.0729 44.9899C18.2917 44.7563 17.4812 44.6382 16.6667 44.6382C10.9229 44.6382 6.25 50.5261 6.25 57.7632V59.0757C6.25 61.2518 4.85 63.0132 3.125 63.0132C1.4 63.0132 0 61.2518 0 59.0757V57.7632C0 46.1843 7.47708 36.7632 16.6667 36.7632C17.9646 36.7632 19.2583 36.9522 20.5104 37.3249C22.1917 37.8263 23.2312 39.9473 22.8333 42.0631Z" fill="white"/>
</svg>
