<svg width="50" height="63" viewBox="0 0 50 63" fill="none" xmlns="http://www.w3.org/2000/svg">
<path id="Vector" d="M46.6354 17.3776C44.4667 14.6423 41.5917 13.1382 38.5375 13.1382H37.4521C36.9229 5.79081 32.0083 0.0131836 26.0396 0.0131836H11.4563C8.40417 0.0131836 5.52917 1.51731 3.35833 4.25256C1.19167 6.98518 0 10.6103 0 14.4586L0.00833333 44.9716C0.0125 47.6753 1.75833 49.8751 3.9 49.8751C4.25208 49.8751 4.60625 49.8147 4.95208 49.6939C5.07917 49.6493 12.6479 45.6593 12.6479 45.6593C13.5354 52.5132 18.2688 57.7632 23.9563 57.7632H35.4146C35.4146 57.7632 44.9188 62.7743 45.0438 62.8189C45.3896 62.9397 45.7438 63.0001 46.0958 63.0001C48.2396 63.0001 49.9854 60.7951 49.9854 58.0913L49.9958 27.5836C49.9958 23.7353 48.8042 20.1102 46.6354 17.3776ZM6.25 14.4533C6.25 12.7129 6.79375 11.0671 7.78125 9.82018C8.76875 8.57331 10.075 7.88818 11.4583 7.88818H26.0417C28.9125 7.88818 31.25 10.8308 31.25 14.4507V30.2007C31.25 33.8206 28.9125 36.7632 26.0396 36.7632H13.9521C13.5375 36.7632 13.1271 36.8682 12.7438 37.0703L6.25833 40.4986L6.25 14.4533ZM43.7375 53.6236L37.2521 50.1953C36.8688 49.9932 36.4583 49.8882 36.0438 49.8882H23.9563C21.4417 49.8882 19.3375 47.6307 18.8521 44.6382H26.0396C32.3563 44.6382 37.4979 38.1597 37.4979 30.2007V21.0132H38.5375C39.9208 21.0132 41.2271 21.7009 42.2146 22.9452C43.2042 24.1921 43.7458 25.8379 43.7458 27.5783L43.7375 53.6236ZM20.8333 31.5132C20.8333 32.9622 19.9 34.1382 18.75 34.1382C17.6 34.1382 16.6667 32.9622 16.6667 31.5132C16.6667 30.0642 17.6 28.8882 18.75 28.8882C19.9 28.8882 20.8333 30.0642 20.8333 31.5132ZM12.5 18.3882C12.5 16.0546 13.3146 13.8548 14.7333 12.3533C16.1521 10.8518 18.0188 10.2166 19.8646 10.6392C22.3833 11.1931 24.4563 13.8023 24.9 16.9838C25.3646 20.3228 24.1042 23.6592 21.7625 25.2893C20.9375 25.8616 20.2729 26.7409 20.2667 26.7488C19.8563 27.2948 19.3042 27.5704 18.7479 27.5704C18.2354 27.5704 17.725 27.3342 17.3229 26.8591C16.4875 25.8694 16.4396 24.2157 17.2229 23.1604C17.3333 23.0082 18.3521 21.6589 19.75 20.6903C20.3542 20.2729 20.9896 19.2859 20.7958 17.8921C20.6521 16.8631 19.9583 15.9889 19.1438 15.8104C18.5063 15.6634 17.8896 15.8682 17.4104 16.3774C16.9354 16.8762 16.6646 17.6112 16.6646 18.3908C16.6646 19.8424 15.7313 21.0158 14.5813 21.0158C13.4313 21.0158 12.4979 19.8424 12.4979 18.3908L12.5 18.3882Z" fill="white"/>
</svg>
