<svg width="24" height="24" viewBox="0 0 24 24" fill="none" xmlns="http://www.w3.org/2000/svg">
<path id="Vector" d="M15.3333 19.2C14.4 19.2 13.6111 18.91 12.9667 18.33C12.3222 17.75 12 17.04 12 16.2C12 15.36 12.3222 14.65 12.9667 14.07C13.6111 13.49 14.4 13.2 15.3333 13.2C16.2667 13.2 17.0556 13.49 17.7 14.07C18.3444 14.65 18.6667 15.36 18.6667 16.2C18.6667 17.04 18.3444 17.75 17.7 18.33C17.0556 18.91 16.2667 19.2 15.3333 19.2ZM2.66667 24C1.93333 24 1.30556 23.765 0.783333 23.295C0.261111 22.825 0 22.26 0 21.6V4.8C0 4.14 0.261111 3.575 0.783333 3.105C1.30556 2.635 1.93333 2.4 2.66667 2.4H4V0H6.66667V2.4H17.3333V0H20V2.4H21.3333C22.0667 2.4 22.6944 2.635 23.2167 3.105C23.7389 3.575 24 4.14 24 4.8V21.6C24 22.26 23.7389 22.825 23.2167 23.295C22.6944 23.765 22.0667 24 21.3333 24H2.66667ZM2.66667 21.6H21.3333V9.6H2.66667V21.6ZM2.66667 7.2H21.3333V4.8H2.66667V7.2Z" fill="#A07B4F"/>
</svg>
